<svg id="Layer_1" data-name="Layer 1" xmlns="http://www.w3.org/2000/svg" xmlns:xlink="http://www.w3.org/1999/xlink" viewBox="0 0 300 361.91"><defs><style>.cls-1{fill:none;}.cls-2{clip-path:url(#clip-path);}.cls-3{fill:#010101;stroke:#000;stroke-miterlimit:10;stroke-width:3px;}</style><clipPath id="clip-path" transform="translate(-260 24.2)"><rect class="cls-1" x="260" y="-25" width="300" height="363"/></clipPath></defs><title>medical shield</title><g class="cls-2"><path d="M410,337.71L356.18,310.8A173.06,173.06,0,0,1,260,155.2V25h9.87A221.4,221.4,0,0,0,392.32-12.41L410-24.2l17.89,11.93A221.35,221.35,0,0,0,551,25h9V155.2a173.06,173.06,0,0,1-96.18,155.6ZM272,37V155.2a161.11,161.11,0,0,0,89.55,144.86L410,324.29l48.45-24.23A161.11,161.11,0,0,0,548,155.2V37A233.31,233.31,0,0,1,421.23-2.3L410-9.8,399-2.43A233.26,233.26,0,0,1,272,37h0Zm0,0" transform="translate(-260 24.2)"/></g><path class="cls-3" d="M463.69,216.76H452.63a24.88,24.88,0,0,1-24.79-27l1.93-30.28c1.12,0.67,2.27,1.19,3.41,1.77a49.15,49.15,0,0,0,9.46,3.93c0.29,6.12,3,15.15,12.17,17.26,4.06,0.94,5.33-5.12,1.39-6-5.22-1.2-6.76-6.27-7.21-9.81a54.36,54.36,0,0,0,7.83.71,3.09,3.09,0,1,0,0-6.19h-0.09c-14-.19-27.29-7.4-37.36-18a12.71,12.71,0,0,0-18.41,0c-18.2,19.22-36.83,17.9-37.44,18a3.1,3.1,0,0,0,0,6.19,50.48,50.48,0,0,0,7.61-.66c-0.46,3.53-2,8.55-7.2,9.75-3.94.91-2.67,7,1.39,6,9.13-2.11,11.86-11.08,12.17-17.2a53.64,53.64,0,0,0,7.54-2.86s5.27-2.73,6-3.16c2.27,35.61,1.9,29.95,2,30.59a24.86,24.86,0,0,1-24.8,26.93h-9.84a3.1,3.1,0,1,0,0,6.19h9.84a31.09,31.09,0,0,0,31-33.61L397,155a75.4,75.4,0,0,0,8.52-7.65,6.42,6.42,0,0,1,4.71-2c4.48,0,4.1,2.7,13.64,10l-2.16,34a31.07,31.07,0,0,0,31,33.61h11.06A3.1,3.1,0,1,0,463.69,216.76Z" transform="translate(-260 24.2)"/><path class="cls-3" d="M515.66,209.63c-6.47-48.28-12.57-93.89-42.54-113.75a24.18,24.18,0,0,0-13.4-4c-12.34,0-31.43,9.37-32.5,22.32l-0.68,8.25c-2.26-3.28-4-5.68-4-9.66V43.15a3.1,3.1,0,1,0-6.19,0v69.62a18.31,18.31,0,0,0,2.72,9.61,88.75,88.75,0,0,0,7.52,10.26A51,51,0,0,0,440.4,144c0.22,0.12.42,0.31,0.64,0.43a6.07,6.07,0,0,0,1,.48A35.51,35.51,0,0,0,457,148.75a2.86,2.86,0,0,0,1.18-.48,3,3,0,0,0,1-.41,3.1,3.1,0,0,0-2.13-5.3,26.68,26.68,0,0,1-4.4-.6,18,18,0,0,0,7.13-10.42,3.1,3.1,0,1,0-6-1.62c-2,7.57-8.16,8.8-9.83,9a44.75,44.75,0,0,1-11.77-9.41l1.23-14.82c0.75-9,16.7-16.64,26.33-16.64a18,18,0,0,1,10,3c27.63,18.31,33.55,62.56,39.83,109.41l0.1,0.76a4.91,4.91,0,0,1-4.86,5.55H477.31a3.1,3.1,0,1,0,0,6.19h27.45a11.1,11.1,0,0,0,11-12.57Z" transform="translate(-260 24.2)"/><path class="cls-3" d="M351.12,101a18,18,0,0,1,10-3c9.63,0,25.58,7.62,26.33,16.64L388.62,129c-1.07,1.2-2.18,2.17-3.27,3.21-2.66,2.53-1.51,1.92-6.37,5.08-0.81.53-1.61,1.19-2.44,1.64a11.7,11.7,0,0,1-10.14-9.05,3.1,3.1,0,1,0-6,1.62A18,18,0,0,0,367.57,142a27.11,27.11,0,0,1-4.19.59,3.1,3.1,0,0,0-2.12,5.3,3.16,3.16,0,0,0,.75.31,2.79,2.79,0,0,0,1.46.58,42.67,42.67,0,0,0,15.72-4.13c9.37-5,17.1-14.11,22.11-22.24a18.31,18.31,0,0,0,2.71-9.6V43.15a3.1,3.1,0,1,0-6.19,0v69.63c0,5-2.79,7.62-3.59,8.8l-0.61-7.4c-1.07-12.95-20.16-22.32-32.5-22.32a24.17,24.17,0,0,0-13.41,4c-31.81,21.09-37.11,73.23-42.64,114.51A11.1,11.1,0,0,0,316,223h24.54a3.1,3.1,0,0,0,0-6.19H316a4.84,4.84,0,0,1-3.69-1.67,5.3,5.3,0,0,1-1.07-4.64C317.56,163.6,323.49,119.35,351.12,101Z" transform="translate(-260 24.2)"/></svg>